# xmcd
#
# Track frame offsets: 
#        150
#        13707
#        28915
#        43850
#        57130
#        70739
#        83601
#        96894
#        111332
#        126900
#        138929
#        151394
#        165846
#        179170
#        191761
#        205058
#        217806
#        231655
#        242448
#        254980
#        267444
#        282059
#        294916
#
# Disc length: 4107 seconds
#
# Revision: 1
# Processed by: cddbd v1.5.2PL0 Copyright (c) Steve Scherf et al.
# Submitted via: ExactAudioCopyFreeDBPlugin 1.0
#
DISCID=54100917
DTITLE=Benny Carter - 2004 - Benny Carter - CD1 (Classic Jazz Archive)
DYEAR=2004
DGENRE=Jazz
TTITLE0=Thats How I Feel Today
TTITLE1=Six Or Seven Times
TTITLE2=Goodbye Blues
TTITLE3=Cloudy Skies
TTITLE4=Got Another Sweetie Now
TTITLE5=Bugle Call Rag
TTITLE6=Dee Blues
TTITLE7=Swing It
TTITLE8=Synthetic Love
TTITLE9=Six Bells Stampede
TTITLE10=Swingin' At Malda Vale
TTITLE11=Night Fall
TTITLE12=Whne Day Is Gone
TTITLE13=Ive Got Two Lips
TTITLE14=You Understand
TTITLE15=Accent On Swing
TTITLE16=I Gotta Go
TTITLE17=Bucle Call Rag
TTITLE18=Cloaming
TTITLE19=Therell Be Some Changes Made
TTITLE20=Jingle Bells
TTITLE21=Carry Me Back To Old Virginia
TTITLE22=Gin And Jive
EXTD=
EXTT0=
EXTT1=
EXTT2=
EXTT3=
EXTT4=
EXTT5=
EXTT6=
EXTT7=
EXTT8=
EXTT9=
EXTT10=
EXTT11=
EXTT12=
EXTT13=
EXTT14=
EXTT15=
EXTT16=
EXTT17=
EXTT18=
EXTT19=
EXTT20=
EXTT21=
EXTT22=
PLAYORDER=
